<svg width="20" height="24" viewBox="0 0 20 24" fill="none" xmlns="http://www.w3.org/2000/svg">
<path fill-rule="evenodd" clip-rule="evenodd" d="M13.5393 0.753123C13.341 0.560396 13.0989 0.476383 12.8628 0.480098L5.40814 0.481897C2.64217 0.481897 0.399902 2.6792 0.399902 5.3897V18.6154C0.399902 21.3259 2.64217 23.5232 5.40814 23.5232H14.5781C17.3441 23.5232 19.5864 21.3259 19.5864 18.6154V7.20229L19.5861 7.20107C19.6353 6.91208 19.5554 6.59824 19.3069 6.35677L13.5393 0.753123ZM5.61728 2.40204L11.9113 2.40108L11.9118 7.04563L11.9182 7.15759C11.9737 7.63506 12.3791 8.00568 12.8711 8.00568L17.6674 8.00493L17.6677 18.3514C17.6677 20.1473 16.1908 21.6032 14.369 21.6032H5.61728C3.79544 21.6032 2.31855 20.1473 2.31855 18.3514V5.65384C2.31855 3.85792 3.79544 2.40204 5.61728 2.40204ZM12.98 10.9357C13.3561 11.3118 13.3559 11.9219 12.9795 12.2983L11.2878 13.9901L12.9783 15.6807C13.3544 16.0568 13.3542 16.6669 12.9778 17.0433C12.6014 17.4197 11.9914 17.4199 11.6153 17.0438L9.92478 15.3532L8.23309 17.045C7.8567 17.4214 7.24668 17.4216 6.87056 17.0455C6.49445 16.6693 6.49466 16.0593 6.87104 15.6829L8.56272 13.9911L6.87223 12.3005C6.4961 11.9243 6.49632 11.3143 6.87271 10.9379C7.24909 10.5615 7.85914 10.5613 8.23524 10.9374L9.92574 12.628L11.6174 10.9362C11.9938 10.5598 12.6038 10.5596 12.98 10.9357ZM13.8304 6.08557V3.71212L16.2733 6.08557H13.8304Z" fill="black"/>
</svg>
