<svg width="16" height="16" viewBox="0 0 16 16" fill="none" xmlns="http://www.w3.org/2000/svg">
<path fill-rule="evenodd" clip-rule="evenodd" d="M12.1593 10.7938C12.1593 10.7938 14.9395 13.5799 15.7587 14.386C16.0887 14.7106 16.0887 15.3489 15.7063 15.7258C15.324 16.1026 14.6333 16.0705 14.3058 15.755C13.8304 15.2968 12.3438 13.8 11.4236 12.8734C11.1121 12.5596 10.8655 12.3113 10.745 12.1908C10.7363 12.1971 10.7242 12.2062 10.7089 12.2178C10.4221 12.4348 8.98406 13.5225 6.73702 13.5225C3.01453 13.5225 0 10.4939 0 6.76126C0 3.02865 3.01453 0 6.73702 0C10.4562 0 13.474 3.02865 13.474 6.76126C13.474 8.3104 13.0312 9.65468 12.1593 10.7938ZM1.74286 6.74274C1.74286 9.49886 3.98455 11.7412 6.74286 11.7412C9.49814 11.7412 11.7429 9.49886 11.7429 6.74274C11.7429 3.98662 9.49814 1.74122 6.74286 1.74122C3.98455 1.74122 1.74286 3.98662 1.74286 6.74274Z" fill="white"/>
</svg>
