<?xml version="1.0" encoding="utf-8"?>

<svg version="1.1" id="Layer_1" x="0px" y="0px"
     viewBox="0 0 96 96" style="enable-background:new 0 0 96 96;" xml:space="preserve">
<style type="text/css">
	.st0{fill:#333333;}
</style>
  <g id="XMLID_2_">
	<path id="XMLID_7_" class="st0" d="M25.8,69.2h20.1V31.1H24.7v37c0,0.3,0.1,0.5,0.3,0.7C25.3,69,25.5,69.2,25.8,69.2z M71.3,68.1
		v-37H50.1v38.1h20.1c0.3,0,0.5-0.1,0.7-0.3S71.3,68.4,71.3,68.1z M75.5,27.9v40.2c0,1.5-0.5,2.7-1.6,3.7c-1,1-2.3,1.6-3.7,1.6H25.8
		c-1.5,0-2.7-0.5-3.7-1.6c-1-1-1.6-2.3-1.6-3.7V27.9c0-1.5,0.5-2.7,1.6-3.7c1-1,2.3-1.6,3.7-1.6h44.4c1.5,0,2.7,0.5,3.7,1.6
		C75,25.2,75.5,26.4,75.5,27.9z"/>
</g>
</svg>
